<svg height="480pt" viewBox="-8 0 480 480" width="480pt" xmlns="http://www.w3.org/2000/svg"><path d="m415.359375 335.441406c26.289063-34.277344 40.570313-76.246094 40.640625-119.441406v48c-.078125 42.820312-14.121094 84.445312-40 118.558594v-46.558594zm0 0" fill="#ce893d"/><path d="m416 336v46.558594c-11.433594 15.316406-24.890625 29.015625-40 40.722656v-47.28125l-.398438-.480469c14.980469-11.527343 28.351563-25.007812 39.757813-40.078125zm0 0" fill="#e6a71e"/><path d="m232 8c123.679688 0 224 93.121094 224 208-.070312 43.195312-14.351562 85.164062-40.640625 119.441406-11.40625 15.070313-24.777344 28.550782-39.757813 40.078125-12.273437 9.644531-25.550781 17.933594-39.601562 24.71875-15.324219 7.472657-31.417969 13.242188-48 17.203125-36.820312 8.746094-75.179688 8.746094-112 0-16.582031-3.960937-32.675781-9.730468-48-17.203125-14.050781-6.785156-27.328125-15.074219-39.601562-24.71875-14.980469-11.527343-28.351563-25.007812-39.757813-40.078125-26.289063-34.277344-40.570313-76.246094-40.640625-119.441406 0-114.878906 100.320312-208 224-208zm0 0" fill="#ffcb5a"/><path d="m376 376v47.28125c-12.367188 9.714844-25.75 18.054688-39.921875 24.878906l-.078125-.160156v-47.761719c14.050781-6.785156 27.328125-15.074219 39.601562-24.71875zm0 0" fill="#ce893d"/><path d="m336 448 .078125.160156c-15.238281 7.472656-31.253906 13.238282-47.757813 17.199219l-.320312-1.359375v-46.558594c16.582031-3.960937 32.675781-9.730468 48-17.203125zm0 0" fill="#e6a71e"/><path d="m288.320312 465.359375c-18.449218 4.421875-37.351562 6.648437-56.320312 6.640625v-48c18.859375.035156 37.660156-2.167969 56-6.558594v46.558594zm0 0" fill="#ce893d"/><path d="m232 424v48c-18.96875.007812-37.871094-2.21875-56.320312-6.640625l.320312-1.359375v-46.558594c18.339844 4.390625 37.140625 6.59375 56 6.558594zm0 0" fill="#e6a71e"/><path d="m176 417.441406v46.558594l-.320312 1.359375c-16.503907-3.960937-32.519532-9.726563-47.757813-17.199219l.078125-.160156v-47.761719c15.324219 7.472657 31.417969 13.242188 48 17.203125zm0 0" fill="#ce893d"/><path d="m88.398438 375.519531c12.273437 9.644531 25.550781 17.933594 39.601562 24.71875v47.761719l-.078125.160156c-14.152344-6.851562-27.535156-15.191406-39.921875-24.878906v-47.28125zm0 0" fill="#e6a71e"/><path d="m48.640625 335.441406c11.40625 15.070313 24.777344 28.550782 39.757813 40.078125l-.398438.480469v47.28125c-15.109375-11.707031-28.566406-25.40625-40-40.722656v-46.558594zm0 0" fill="#ce893d"/><path d="m8 216c.070312 43.195312 14.351562 85.164062 40.640625 119.441406l-.640625.558594v46.558594c-25.878906-34.113282-39.921875-75.738282-40-118.558594zm0 0" fill="#e6a71e"/><path d="m408 216c0-88.367188-78.796875-160-176-160s-176 71.632812-176 160 78.796875 160 176 160 176-71.632812 176-160zm0 0" fill="#e6a71e"/><path d="m341.945312 309.832031-10.9375-11.664062c9.347657-8.710938 17.269532-18.839844 23.464844-30.015625l14.015625 7.695312c-6.996093 12.660156-15.957031 24.132813-26.542969 33.984375zm0 0" fill="#ffcb5a"/><path d="m232 352c-83.816406 0-152-61.007812-152-136s68.183594-136 152-136 152 61.007812 152 136h-16c0-66.167969-61.007812-120-136-120s-136 53.832031-136 120 61.007812 120 136 120c26.6875.128906 52.910156-6.949219 75.902344-20.496094l8.195312 13.753906c-25.472656 15.015626-54.527344 22.875-84.097656 22.742188zm0 0" fill="#ffcb5a"/><path d="m232 384c101.464844 0 184-75.367188 184-168s-82.535156-168-184-168-184 75.367188-184 168 82.535156 168 184 168zm0-320c92.632812 0 168 68.183594 168 152s-75.367188 152-168 152-168-68.183594-168-152 75.367188-152 168-152zm0 0"/><path d="m331.007812 298.167969 10.9375 11.664062c10.585938-9.851562 19.546876-21.324219 26.542969-33.984375l-14.015625-7.695312c-6.195312 11.175781-14.117187 21.304687-23.464844 30.015625zm0 0"/><path d="m232 352c29.570312.132812 58.625-7.726562 84.097656-22.742188l-8.195312-13.753906c-22.992188 13.546875-49.214844 20.625-75.902344 20.496094-74.992188 0-136-53.832031-136-120s61.007812-120 136-120 136 53.832031 136 120h16c0-74.992188-68.183594-136-152-136s-152 61.007812-152 136 68.183594 136 152 136zm0 0"/><path d="m464 264v-54.398438c-.046875-.339843-.113281-.671874-.199219-1-4.214843-115.691406-106.542969-208.601562-231.800781-208.601562-126.046875 0-228.878906 94.105469-231.855469 210.808594-.0624998.230468-.1093748.460937-.144531.695312v52.496094c0 119.105469 104.078125 216 232 216s232-96.894531 232-216zm-40 91.449219v-18.34375c7.476562-10.253907 14.015625-21.160157 19.535156-32.585938-4.011718 17.832031-10.589844 34.988281-19.535156 50.929688zm-192-339.449219c119.105469 0 216 89.71875 216 200s-96.894531 200-216 200-216-89.71875-216-200 96.894531-200 216-200zm-112 389.078125v29.882813c-8.339844-4.71875-16.355469-9.984376-24-15.761719v-28.398438c7.707031 5.230469 15.722656 10 24 14.277344zm16 7.480469c10.394531 4.417968 21.089844 8.101562 32 11.015625v31.457031c-10.957031-3.160156-21.652344-7.152344-32-11.941406zm48 14.761718c13.191406 2.578126 26.566406 4.078126 40 4.488282v32c-13.449219-.460938-26.832031-2.082032-40-4.855469zm56 4.488282c13.433594-.410156 26.808594-1.910156 40-4.488282v31.640626c-13.167969 2.773437-26.550781 4.398437-40 4.855468zm56-8.234375c10.910156-2.914063 21.605469-6.597657 32-11.015625v30.53125c-10.347656 4.789062-21.042969 8.78125-32 11.941406zm48-18.496094c8.277344-4.265625 16.289062-9.023437 24-14.246094v28.367188c-7.644531 5.765625-15.664062 11.019531-24 15.730469zm-304-68v18.347656c-8.941406-15.941406-15.523438-33.097656-19.535156-50.929687 5.519531 11.433594 12.058594 22.347656 19.535156 32.609375zm16 42.625v-23.214844c7.441406 8.070313 15.464844 15.585938 24 22.488281v26.96875c-8.738281-8.035156-16.769531-16.804687-24-26.21875zm328 26.21875v-26.945313c8.535156-6.902343 16.558594-14.417968 24-22.488281v23.238281c-7.230469 9.414063-15.261719 18.183594-24 26.21875zm0 0"/></svg>