<svg id="Layer_1" height="512" viewBox="0 0 512 512" width="512" xmlns="http://www.w3.org/2000/svg" xmlns:xlink="http://www.w3.org/1999/xlink" data-name="Layer 1"><linearGradient id="GradientFill_1" gradientUnits="userSpaceOnUse" x1="33.44" x2="478.558" y1="255.999" y2="255.999"><stop offset="0" stop-color="#58c8df"/><stop offset="1" stop-color="#53a7dd"/></linearGradient><path d="m347.275.909a10.327 10.327 0 1 0 -8.515 18.816c72.181 32.655 119.152 104.807 119.152 184.1a10.323 10.323 0 0 0 20.646 0c0-87.384-51.729-166.909-131.283-202.913zm-303.505 213.228a10.319 10.319 0 0 1 -10.33-10.315c0-87.391 51.728-166.9 131.282-202.9a10.319 10.319 0 0 1 8.508 18.8c-72.181 32.658-119.152 104.817-119.152 184.1a10.3 10.3 0 0 1 -10.308 10.315zm190.547-181.667a21.678 21.678 0 1 0 21.683-21.67 21.727 21.727 0 0 0 -21.683 21.67zm-165.508 399.53a14.458 14.458 0 0 1 -11.68-22.961l59.48-81.789a10.356 10.356 0 0 0 1.978-6.073v-117.355c0-75.768 61.652-137.412 137.413-137.412s137.41 61.644 137.41 137.412v117.358a10.312 10.312 0 0 0 1.972 6.073l59.48 81.789a14.463 14.463 0 0 1 -11.695 22.958zm187.191-342.88a115.127 115.127 0 0 1 114.7 114.7 10.327 10.327 0 0 1 -20.653 0 94.157 94.157 0 0 0 -94.047-94.047 10.327 10.327 0 0 1 0-20.653zm57.4 363.521h-114.809c-.022.636-.043 1.279-.043 1.922a57.451 57.451 0 0 0 114.9 0c.001-.643-.02-1.286-.048-1.922z" fill="url(#GradientFill_1)" fill-rule="evenodd"/></svg>