<?xml version="1.0" encoding="iso-8859-1"?>
<!-- Generator: Adobe Illustrator 19.0.0, SVG Export Plug-In . SVG Version: 6.00 Build 0)  -->
<svg xmlns="http://www.w3.org/2000/svg" xmlns:xlink="http://www.w3.org/1999/xlink" version="1.1" id="Layer_1" x="0px" y="0px" viewBox="0 0 512.008 512.008" style="enable-background:new 0 0 512.008 512.008;" xml:space="preserve" width="512" height="512">
<g id="XMLID_2017_">
	<g id="XMLID_1489_">
		<path id="XMLID_1422_" style="fill:#E8E7E9;" d="M468.007,81.314l-265.82-70.596c-10.676-2.835-21.628,3.521-24.464,14.196    L76.384,406.495c-2.835,10.676,3.521,21.628,14.196,24.464l265.82,70.596c10.676,2.835,21.628-3.521,24.464-14.196l101.339-381.58    C485.039,95.102,478.683,84.149,468.007,81.314z"/>
		<path id="XMLID_1397_" style="fill:#FFFFFF;" d="M324.06,43.177H49.026c-11.046,0-20,8.954-20,20v394.808c0,11.046,8.954,20,20,20    H324.06c11.046,0,20-8.954,20-20V63.177C344.06,52.131,335.106,43.177,324.06,43.177z"/>
		<path id="XMLID_1472_" style="fill:#FF6371;" d="M156.455,359.057L156.455,359.057c0.015-0.015,14.388-13.814,20.248-41.295    c0.406-1.905-1.794-3.262-3.308-2.036c-10.757,8.716-24.934,12.548-38.789,10.144c-2.284-0.401-4.553-0.958-6.765-1.679    c-19.267-6.333-32.545-24.208-32.99-44.489c-0.319-13.367,5.032-26.341,14.71-35.679c0.391-0.337,76.69-84.289,76.69-84.289    s77.89,83.842,78.317,84.213c9.663,9.275,15.01,22.249,14.716,35.631c-0.487,22.846-17.194,42.285-39.7,46.217    c-7.756,1.359-15.83,0.768-23.353-1.691c-5.486-1.805-10.575-4.543-15.047-8.073c-1.524-1.203-3.702,0.162-3.288,2.059    c5.945,27.261,20.247,40.968,20.247,40.968H156.455z"/>
		<g id="XMLID_561_">
			<path id="XMLID_1127_" d="M193.576,152.927c-1.905-2.05-4.589-3.201-7.381-3.194c-2.799,0.016-5.463,1.203-7.346,3.274     c-20.348,22.39-73.137,80.459-76.409,83.989c-11.562,11.252-17.969,26.889-17.587,42.924     c0.538,24.501,16.559,46.109,39.887,53.776c2.62,0.854,5.358,1.535,8.158,2.025c9.521,1.653,19.189,0.889,28.188-2.071     c-5.325,11.865-11.384,18.019-11.598,18.231c-2.914,2.83-3.827,7.144-2.307,10.913c1.525,3.783,5.195,6.261,9.274,6.261h61.687     c4.083,0,7.781-2.459,9.303-6.248s0.612-8.1-2.336-10.925c-0.086-0.086-6.203-6.218-11.598-18.15     c8.976,2.864,18.578,3.526,27.792,1.911c27.211-4.754,47.388-28.243,47.977-55.848c0.354-16.11-6.075-31.745-17.645-42.927     C268.529,233.593,214.413,175.356,193.576,152.927z M237.858,315.944c-6.133,1.074-12.539,0.608-18.503-1.341     c-4.367-1.437-8.396-3.598-11.976-6.422c-3.988-3.149-9.561-3.457-13.865-0.766c-4.307,2.69-6.473,7.836-5.39,12.804     c2.596,11.901,6.679,21.524,10.696,28.837H175.8c4.023-7.361,8.098-17.084,10.684-29.21c1.064-4.993-1.143-10.14-5.493-12.806     c-4.347-2.665-9.93-2.295-13.891,0.915c-8.656,7.016-19.875,9.952-30.767,8.064c-1.854-0.325-3.667-0.774-5.37-1.33     c-15.268-5.018-25.763-19.167-26.115-35.228c-0.251-10.559,3.998-20.854,11.657-28.245l-0.011-0.011     c1.558-1.608,9.903-10.75,69.837-76.694c61.554,66.255,69.852,75.142,71.32,76.639l-0.009,0.009     c7.632,7.325,11.875,17.602,11.643,28.204C268.899,297.446,255.684,312.83,237.858,315.944z"/>
			<path id="XMLID_1128_" d="M344.06,249.702c-5.523,0-10,4.477-10,10v0.577c0,5.522,4.477,10,10,10s10-4.478,10-10v-0.577     C354.06,254.179,349.583,249.702,344.06,249.702z"/>
			<path id="XMLID_1133_" d="M430.245,112.547l-16.735-4.484c-5.335-1.432-10.818,1.736-12.248,7.071s1.736,10.818,7.071,12.248     l7.076,1.896l-8.209,30.639c-0.506,1.89-1.719,3.47-3.413,4.448c-1.694,0.979-3.667,1.237-5.559,0.732     c-1.89-0.506-3.469-1.718-4.447-3.413c-0.979-1.694-1.238-3.668-0.732-5.558c1.43-5.334-1.736-10.818-7.071-12.248     s-10.818,1.736-12.248,7.071c-1.889,7.05-0.92,14.414,2.729,20.735s9.542,10.842,16.592,12.731     c2.36,0.632,4.731,0.935,7.066,0.934c12.063,0,23.132-8.062,26.4-20.255l10.798-40.298     C438.745,119.46,435.579,113.977,430.245,112.547z"/>
			<path id="XMLID_1136_" d="M281.652,83.19c-1.425-3.974-5.192-6.625-9.414-6.625s-7.989,2.651-9.414,6.625l-21.498,59.972     c-1.863,5.199,0.84,10.924,6.039,12.788c5.198,1.861,10.924-0.84,12.788-6.039l1.578-4.401h21.014l1.578,4.401     c1.464,4.084,5.311,6.628,9.414,6.628c1.12,0,2.259-0.19,3.374-0.589c5.199-1.864,7.903-7.589,6.039-12.788L281.652,83.19z      M268.901,125.509l3.337-9.311l3.338,9.311H268.901z"/>
		</g>
	</g>
	<g id="XMLID_1659_">
		<path id="XMLID_39_" d="M469.998,71.735L206.277,1.071c-8.001-2.145-16.355-1.044-23.528,3.098    c-7.172,4.141-12.302,10.827-14.446,18.826l-2.739,10.222l-115.523-0.04c-0.004,0-0.007,0-0.011,0    c-8.279,0-16.064,3.224-21.92,9.078c-5.858,5.856-9.085,13.644-9.085,21.928v392.797c0,17.097,13.909,31.006,31.005,31.006    h216.583l85.697,22.962c2.678,0.718,5.369,1.061,8.018,1.061c13.688,0,26.248-9.148,29.956-22.984l101.637-379.315    C496.346,93.194,486.511,76.16,469.998,71.735z M187.622,28.171c0.761-2.839,2.582-5.212,5.127-6.682    c2.546-1.47,5.511-1.861,8.351-1.1l47.981,12.856l-62.813-0.022L187.622,28.171z M472.603,104.532L370.966,483.847    c-1.571,5.862-7.616,9.355-13.479,7.782l-22.509-6.031c11.195-4.682,19.082-15.745,19.082-28.618V303.206c0-5.522-4.477-10-10-10    s-10,4.478-10,10v153.773c0,6.068-4.937,11.006-11.005,11.006H87.034V404.85c0-5.522-4.477-10-10-10s-10,4.478-10,10v63.135    H50.032c-6.068,0-11.005-4.938-11.005-11.006V64.183c0-2.94,1.145-5.705,3.225-7.783c2.079-2.078,4.841-3.222,7.78-3.222    c0.001,0,0.002,0,0.004,0l122.207,0.042c0.663,0.066,1.319,0.065,1.965,0.001l148.851,0.051c0.452,0,0.895,0.036,1.332,0.089    c0.186,0.031,0.372,0.065,0.558,0.086c0.791,0.138,1.555,0.354,2.279,0.652c0.074,0.03,0.145,0.065,0.221,0.094    c3.887,1.7,6.613,5.579,6.613,10.084v153.673c0,5.523,4.477,10,10,10s10-4.477,10-10V64.276c0-0.992-0.052-1.971-0.143-2.94    l110.904,29.717C470.683,92.624,474.174,98.67,472.603,104.532z"/>
		<g id="XMLID_1657_">
			<path id="XMLID_536_" d="M77.034,374.849c-2.63,0-5.21-1.069-7.07-2.93s-2.93-4.44-2.93-7.07s1.07-5.21,2.93-7.069     c1.86-1.86,4.44-2.931,7.07-2.931s5.21,1.07,7.07,2.931c1.86,1.859,2.93,4.439,2.93,7.069s-1.07,5.21-2.93,7.07     C82.244,373.779,79.664,374.849,77.034,374.849z"/>
		</g>
	</g>
</g>















</svg>
