<svg id="Capa_1" enable-background="new 0 0 512.33 512.33" height="512" viewBox="0 0 512.33 512.33" width="512" xmlns="http://www.w3.org/2000/svg"><g><g><g><g><path d="m316.66 391.049v67.5l-29.681 36.797v16.984h-82.65v-121.281z" fill="#ffdaaa"/></g><g><path d="m175.42 368.719c-13.087 0-23.697 10.609-23.697 23.697v66.133l37.447 36.797v16.984h22.788v-76.26c0-16.58-13.441-30.021-30.021-30.021h22.317c20.617 0 37.33-16.713 37.33-37.33z" fill="#ffdaaa"/></g><g><g><path d="m210.852 502.904v-16.984l-37.447-36.797v-66.133c0-5.359 1.781-10.301 4.781-14.271h-2.765c-13.087 0-23.697 10.609-23.697 23.697v66.133l37.447 36.797v16.984h22.788v-9.426z" fill="#ffb680"/></g></g><g><path d="m181.46 256.049c-2.159-10.183-12.165-16.688-22.348-14.528-10.188 2.16-16.692 12.173-14.526 22.359l22.551 104.839h38.539z" fill="#ffdaaa"/></g><g><path d="m184.466 349.674-22.551-104.839c-.26-1.223-.388-2.443-.407-3.647-.796.065-1.594.163-2.396.333-10.188 2.16-16.692 12.173-14.526 22.359l22.551 104.839h38.539l-4.093-19.045z" fill="#ffb680"/></g><g><path d="m249.228 241.521c-10.183-2.159-20.189 4.345-22.348 14.528l-24.206 112.67h38.91l22.17-104.839c2.167-10.186-4.338-20.199-14.526-22.359z" fill="#ffdaaa"/></g><g><path d="m229.275 348.816 22.86-106.408c-.933-.361-1.896-.673-2.907-.888-10.183-2.159-20.189 4.345-22.348 14.528l-24.206 112.67h38.91l4.209-19.903h-16.518z" fill="#ffb680"/></g><g><path d="m217.351 128.359-18.788-18.788c11.748-11.657 11.785-30.641.082-42.344l-42.922-42.922-62.937.118-23.093-24.093h-69.528v68.334l24.084 24.42v53.72l76.722 76.722c7.243 7.243 18.987 7.243 26.23 0l.139-.139c7.243-7.243 7.243-18.985.001-26.229l10.608 10.603c7.243 7.243 18.987 7.243 26.23 0l.34-.34c7.279-7.279 7.238-19.093-.092-26.321l.185.183c7.258 7.156 18.93 7.115 26.137-.092l.373-.373c7.243-7.243 7.243-18.987 0-26.23 7.243 7.243 18.987 7.243 26.23 0 7.242-7.242 7.242-18.986-.001-26.229z" fill="#ffdaaa"/></g><g><g><path d="m123.95 214.591-76.722-76.723v-53.72l-31.793-32.13v-51.688h-15.27v68.334l24.084 24.42v53.72l76.722 76.723c7.243 7.243 18.987 7.243 26.23 0l.139-.139c1.367-1.367 2.474-2.894 3.325-4.521-2.449-.898-4.75-2.311-6.715-4.276z" fill="#ffb680"/></g></g><g><path d="m160.716 198.761-36.394-36.394-15.759 16.156 29.174 29.174c7.243 7.243 18.987 7.243 26.23 0l.139-.139c1.367-1.367 2.474-2.894 3.325-4.521-2.449-.898-4.75-2.311-6.715-4.276z" fill="#ffb680"/></g><g><path d="m187.155 172.322-36.394-36.394-15.759 16.156 29.174 29.174c7.243 7.243 18.987 7.243 26.23 0l.139-.139c1.367-1.367 2.474-2.894 3.325-4.521-2.449-.898-4.75-2.311-6.715-4.276z" fill="#ffb680"/></g><g><path d="m213.97 145.507-36.394-36.394-15.759 16.156 29.174 29.174c7.243 7.243 18.987 7.243 26.23 0l.139-.139c1.367-1.367 2.474-2.894 3.325-4.521-2.448-.898-4.75-2.312-6.715-4.276z" fill="#ffb680"/></g><g><path d="m368.983 24.425-98.043 98.043c-7.297 7.297-7.297 19.128 0 26.425l.177.177c7.297 7.297 19.128 7.297 26.425 0l-21.177 21.177c-7.297 7.297-7.297 19.128 0 26.425 7.297 7.297 19.127 7.297 26.424.001l-10.575 10.59c-7.297 7.297-7.296 19.128 0 26.425l.164.164c7.297 7.297 19.128 7.297 26.425 0l21.228-21.23c-7.055 7.314-6.988 18.956.228 26.172l.048.049c7.297 7.297 19.128 7.297 26.425 0l84.255-84.255.14 31.296c.029 10.371 8.398 18.788 18.769 18.877 10.518.09 19.093-8.412 19.093-18.93v-101.257l23.175-23.175v-61.399h-76.33l-24.244 24.425z" fill="#ffdaaa"/></g><g><g><path d="m306.909 219.323-.164-.164c-7.297-7.297-7.297-19.127 0-26.425l10.575-10.59c-7.297 7.296-19.127 7.296-26.424-.001s-7.297-19.128 0-26.425l-14.53 14.53c-7.297 7.297-7.297 19.128 0 26.425s19.127 7.297 26.424.001l-10.575 10.59c-7.297 7.297-7.296 19.128 0 26.425l.164.164c7.297 7.297 19.128 7.297 26.425 0l14.516-14.517c-7.298 7.283-19.118 7.279-26.411-.013z" fill="#ffb680"/></g><g><path d="m271.118 149.07c7.297 7.297 19.128 7.297 26.425 0l14.53-14.53c-7.297 7.297-19.128 7.297-26.425 0l-.177-.177c-7.297-7.297-7.297-19.128 0-26.425l-14.53 14.529c-7.297 7.297-7.297 19.128 0 26.425z" fill="#ffb680"/></g><g><path d="m426.119 9.896 9.823-9.896h-.107l-9.823 9.896z" fill="#ffb680"/></g><g><path d="m484.427 190.231c-10.371-.089-12.308-4.423-12.337-14.794v-52.851l-20.961 21.165v42.134c.029 10.371 8.398 18.788 18.769 18.877 9.156.078 16.832-6.356 18.669-14.96-1.335.284-2.717.441-4.14.429z" fill="#ffb680"/></g><g><path d="m354.838 224.313-.048-.049c-7.216-7.216-7.283-18.858-.228-26.172l-14.539 14.54c-7.046 7.315-6.975 18.949.237 26.162l.048.049c7.297 7.297 19.128 7.297 26.425 0l14.529-14.529c-7.296 7.296-19.127 7.296-26.424-.001z" fill="#ffb680"/></g></g><g><path d="m238.536 383.504h-56.599v22.544h23.096c13.032 0 25.028-7.101 31.297-18.526z" fill="#ffb680"/></g><g><path d="m260.431 413.417c10.35 0 18.739-8.39 18.739-18.739v-22.347c0-10.349-8.39-18.739-18.739-18.739-10.349 0-18.739 8.39-18.739 18.739v22.347c0 10.349 8.389 18.739 18.739 18.739z" fill="#ffdaaa"/></g><g><path d="m262.372 386.444v-22.347c0-3.626 1.047-7 2.831-9.869-1.526-.401-3.12-.637-4.772-.637-10.349 0-18.739 8.39-18.739 18.739v22.347c0 10.35 8.39 18.74 18.739 18.74 6.723 0 12.602-3.552 15.909-8.871-8.034-2.113-13.968-9.405-13.968-18.102z" fill="#ffb680"/></g><g><path d="m298.017 413.417c10.349 0 18.739-8.39 18.739-18.739v-22.347c0-10.349-8.39-18.739-18.739-18.739-10.349 0-18.739 8.39-18.739 18.739v22.347c0 10.349 8.39 18.739 18.739 18.739z" fill="#ffdaaa"/></g><g><path d="m299.851 386.444v-22.347c0-3.626 1.047-7 2.831-9.869-1.526-.401-3.12-.637-4.772-.637-10.349 0-18.739 8.39-18.739 18.739v22.347c0 10.35 8.39 18.74 18.739 18.74 6.723 0 12.602-3.552 15.909-8.871-8.034-2.113-13.968-9.405-13.968-18.102z" fill="#ffb680"/></g></g></g><g><path d="m31.726 89.955-31.561-31.166v21.214l16.607 16.211v53.72l25.182 25.182 10.606-10.606-20.834-20.835z"/><path d="m169.481 213.066c5.168-4.996 8.034-11.778 7.969-18.969 13.94.494 27.091-12.348 26.604-26.576 22.954.428 35.024-28.408 18.601-44.465l-13.997-13.997c4.046-6.059 6.226-13.174 6.241-20.629.019-10.013-3.87-19.426-10.95-26.506l-45.125-45.125h-62.938l-16.586-16.469h-21.213l31.598 31.48h62.937l40.72 40.72c4.239 4.239 6.567 9.875 6.556 15.871-.007 3.408-.793 6.687-2.232 9.667l-30.838-30.838-10.606 10.606 31.714 31.714 24.113 24.112c10.016 10.641-4.995 25.636-15.624 15.623l-29.394-29.394-10.606 10.606 29.394 29.394c10.064 10.63-5.253 26.018-15.94 16.051l-29.694-29.279-10.532 10.681 29.508 29.097c10.2 10.612-5.208 26.131-15.909 16.018l-29.312-29.312-10.607 10.606 18.705 18.708c10.013 10.721-5.084 25.778-15.763 15.762l-42.197-42.197-10.608 10.607 42.197 42.197c13.726 13.987 38.059 7.625 43.484-11.015 9.797 5.029 22.137 3.445 30.33-4.749z"/><path d="m85.052 154.867h15v15h-15z" transform="matrix(.707 -.707 .707 .707 -87.703 113)"/><path d="m111.596 128.67h15v15h-15z" transform="matrix(.707 -.707 .707 .707 -61.405 124.097)"/><path d="m138.405 101.861h15v15h-15z" transform="matrix(.707 -.707 .707 .707 -34.596 135.198)"/><path d="m512.165 50.792-30.675 30.675v104.363c-.461 15.095-22.551 15.107-23.082.02v-49.289l-96.978 96.979c-10.438 9.884-25.614-4.416-16.302-15.407l61.203-61.209-10.606-10.607-82.225 82.232c-10.824 10.154-26.125-5.14-15.982-15.982l82.225-82.231-10.606-10.607-71.65 71.641c-10.79 10.12-25.935-5.04-15.818-15.819l71.645-71.645-10.606-10.606-50.468 50.468c-10.825 10.156-26.14-5.155-15.996-15.996l45.225-45.225-10.607-10.607-45.225 45.225c-13.709 13.069-7.89 37.419 9.862 43.343l-4.437 4.437c-14.072 13.346-7.513 38.608 11.049 43.609-8.972 16.84 4.029 38.554 23.482 38.271 10.288.034 16.6-5.223 23.227-12.382 6.184 17.852 29.958 23.288 43.217 9.704l71.533-71.533v13.292c1.645 35.024 51.482 34.969 52.92-.074v-98.152l15.675-16.133z"/><path d="m372.103 31.912 42.606-.18 31.402-31.402h-21.213l-16.428 16.428-42.607.181-44.002 44.002 10.606 10.607z"/><path d="m409.438 128.211h15v15h-15z" transform="matrix(.707 -.707 .707 .707 26.156 334.569)"/><path d="m382.85 101.623h15v15h-15z" transform="matrix(.707 -.707 .707 .707 37.17 307.981)"/><path d="m356.42 75.193h15v15h-15z" transform="matrix(.707 -.707 .707 .707 48.117 281.551)"/><path d="m159.223 436.33h-15v25.364l37.448 36.797v13.839h15v-20.129l-37.448-36.797z"/><path d="m297.91 346.091c-7.335 0-13.973 3.029-18.739 7.898-4.766-4.869-11.404-7.898-18.74-7.898-2.289 0-4.51.296-6.628.85l17.288-81.501c3.234-13.798-6.385-28.603-20.306-31.256-13.795-3.225-28.59 6.394-31.242 20.314l-15.264 72.22-15.48-72.226c-2.653-13.915-17.448-23.535-31.242-20.309-13.929 2.659-23.542 17.457-20.302 31.273l21.623 100.528c-8.793 5.523-14.654 15.303-14.654 26.431v28.915h15v-28.915c0-8.931 7.266-16.197 16.197-16.197h57.709c-3.334 12.831-15.016 22.33-28.875 22.33h-22.316v15c12.418 0 22.521 10.103 22.521 22.521v15.316h15v-15.315c0-8.707-2.98-16.73-7.976-23.104 9.039-1.472 17.172-5.663 23.549-11.695 2.932 11.287 13.208 19.646 25.399 19.646 7.336 0 13.974-3.029 18.74-7.898 4.767 4.869 11.409 7.898 18.749 7.898 4.02 0 7.83-.911 11.239-2.534v37.518l-29.681 36.797v19.632h15v-14.336l29.681-36.797v-88.866c0-14.469-11.771-26.24-26.25-26.24zm-124.696 15.215-21.292-98.986c-2.678-14.782 18.665-19.296 22.205-4.699l22.205 103.598h-20.911c-.743 0-1.477.035-2.207.087zm39.103-.087 21.9-103.614c3.559-14.591 24.886-10.047 22.2 4.719l-20.977 98.895zm48.114 44.698c-6.197 0-11.239-5.042-11.239-11.239v-22.347c0-6.197 5.042-11.239 11.239-11.239 6.198 0 11.24 5.042 11.24 11.239v22.347c0 6.197-5.042 11.239-11.24 11.239zm48.729-11.239c0 6.197-5.042 11.239-11.25 11.239-6.197 0-11.239-5.042-11.239-11.239v-22.347c0-6.197 5.042-11.239 11.25-11.239 6.197 0 11.239 5.042 11.239 11.239z"/></g></g></svg>